<?xml version="1.0" encoding="utf-8"?>
<!-- Designed by Vexels.com - 2019 All Rights Reserved - https://vexels.com/terms-and-conditions/  -->
<svg version="1.1" id="Layer_1" xmlns="http://www.w3.org/2000/svg" xmlns:xlink="http://www.w3.org/1999/xlink" x="0px" y="0px"
	 viewBox="0 0 1200 1200" enable-background="new 0 0 1200 1200" xml:space="preserve">
<g>
	<g>
		<path fill="#FAF0D0" d="M821.573,994.187c69.92-60.951,119.672-150.982,133.684-257.524
			c32.608-234.372-115.144-360.304-312.395-312.011V87.776c0-20.777-16.999-37.776-37.776-37.776h-10.172
			c-20.777,0-37.775,16.999-37.775,37.776v337.822c-218.244-48.07-346.654,95.439-311.013,311.066
			c17.74,107.349,69.977,195.418,138.187,255.335c15.921,13.985,11.186,39.969-8.491,47.836
			c-28.064,11.222-44.408,24.674-44.408,39.138c0,39.227,120.176,71.027,268.421,71.027s268.42-31.801,268.42-71.027
			c0-13.503-14.243-26.124-38.968-36.872C809.879,1033.664,805.62,1008.093,821.573,994.187z"/>
		<path fill="#F0E1B4" d="M821.573,994.187c69.92-60.951,119.672-150.982,133.684-257.524
			c32.608-234.372-115.144-360.304-312.395-312.011v-38.116c-34.788-2.536-48.234-44.164-76.488-58.291
			c-2.953-1.772-6.045-2.849-9.235-3.439v100.791c-218.244-48.07-346.654,95.439-311.013,311.066
			c17.74,107.349,69.977,195.418,138.187,255.335c15.921,13.985,11.186,39.969-8.491,47.836
			c-28.064,11.222-44.408,24.674-44.408,39.138c0,39.227,120.176,71.027,268.421,71.027s268.42-31.801,268.42-71.027
			c0-13.503-14.243-26.124-38.968-36.872C809.879,1033.664,805.62,1008.093,821.573,994.187z"/>
		<path fill="#98120E" d="M955.257,736.663c34.894-250.805-136.743-377.457-354.566-299.283
			c-244.465-78.174-392.518,69.676-354.566,299.283c17.739,107.349,69.977,195.418,138.187,255.335
			c15.921,13.985,11.185,39.969-8.491,47.836c-28.064,11.222-44.408,24.674-44.408,39.138c0,39.227,120.176,71.027,268.421,71.027
			s268.421-31.8,268.421-71.027c0-13.503-14.243-26.124-38.968-36.872c-19.408-8.437-23.666-34.007-7.714-47.913
			C891.493,933.236,941.244,843.205,955.257,736.663z"/>
		<path fill="#B4140F" d="M821.573,994.187c69.92-60.952,119.671-150.982,133.684-257.524
			c28.385-204.016-79.895-325.873-238.526-322.164c-31.406,44.384-86.905,61.827-140.519,50.658
			c-57.601-10.473-109.966-47.128-162.331-23.564c-125.676,54.983-117.821,214.696-75.929,322.044
			c34.037,86.402,102.111,149.24,164.949,219.932c34.037,36.655-34.037,57.601-34.037,83.784c0,20.946,81.165,5.236,65.456,34.037
			c-10.473,23.564-54.983,7.855-78.547,18.328c-7.65,3.825-9.7,10.1-9.363,17.538c43.487,8.031,96.372,12.745,153.425,12.745
			c148.244,0,268.42-31.8,268.42-71.027c0-13.503-14.243-26.124-38.968-36.872C809.879,1033.664,805.621,1008.093,821.573,994.187z"
			/>
		<path fill="#BD231E" d="M821.573,994.187c69.92-60.952,119.671-150.982,133.684-257.524
			c28.385-204.016-79.895-325.873-238.526-322.164c-17.292,24.437-41.893,40.687-69.455,48.512
			c-7.206,6.933-15.699,12.914-23.936,17.855c-41.892,28.801-91.639,13.091-130.912,31.419
			c-86.402,36.655-91.638,151.858-62.838,230.405c23.564,73.311,102.111,36.655,162.331,47.128
			c39.274,5.237,54.983,60.22,28.801,86.402c-41.892,36.655-28.801,83.784-36.655,130.912
			c-2.618,10.473-26.182,20.946-18.328,36.655s39.274,15.709,28.801,39.274c-10.473,15.709-31.419,28.801-20.946,47.128
			c3.483,6.966,8.147,13.629,13.753,19.727c4.141,0.05,8.299,0.083,12.487,0.083c148.244,0,268.42-31.8,268.42-71.027
			c0-13.503-14.243-26.124-38.968-36.872C809.879,1033.664,805.621,1008.093,821.573,994.187z"/>
		<path fill="#D4413D" d="M821.573,994.187c69.92-60.952,119.671-150.982,133.684-257.524
			c28.385-204.016-79.895-325.873-238.526-322.164c-4.54,6.416-9.596,12.253-15.065,17.536
			c98.924,19.716,168.408,109.853,175.644,211.162c7.855,136.149-49.747,259.206-146.622,356.081
			c-7.855,10.473,5.237,26.182-2.618,39.274c-10.473,15.709-31.419,15.709-41.892,28.801c-2.618,5.236-5.237,13.091-5.237,13.091
			c36.655,15.709,78.547,2.618,109.966,23.564c6.732,4.039,12.063,11.55,15.313,20.376c38.73-12.311,62.034-28.14,62.034-45.411
			c0-13.503-14.243-26.124-38.968-36.872C809.879,1033.664,805.621,1008.093,821.573,994.187z"/>
		<path fill="#D4413D" d="M820.343,1063.971c0.027,0,0.07,0.009,0.099,0.01c-0.049-0.006-0.098-0.013-0.147-0.019
			C820.31,1063.965,820.327,1063.968,820.343,1063.971z"/>
		<path fill="#DF635E" d="M746.269,500.642c29.874-71.238,138.975-26.614,151.137,59.791s0.462,76.588-43.857,110.382
			S710.673,585.527,746.269,500.642z"/>
		<path fill="#DF635E" d="M820.442,1063.981c-15.878,5.014-62.727,54.422-157.616,55.818s-12.162,28.378,106.757,0
			C888.502,1091.421,838.868,1058.163,820.442,1063.981z"/>
		<path fill="#DF635E" d="M410.123,450.204c-40.541,18.243-127.703,79.054-137.838,174.324
			c-10.135,95.27,7.429,201.386,68.919,259.459c36.486,34.459-54.73-95.27-36.486-200.676
			c18.243-105.405,32.926-153.493,121.539-209.143S410.123,450.204,410.123,450.204z"/>
	</g>
	<g>
		<path fill="#541515" d="M600.837,763.78c23.997,0.875,43.435,22.428,45.215,50.133c0.335,5.227-3.63,9.734-8.856,10.072
			c-5.225,0.331-9.734-3.629-10.072-8.856c-1.152-17.95-12.751-31.877-26.979-32.396c-14.228-0.519-26.812,12.526-29.269,30.342
			c-0.715,5.191-5.504,8.818-10.688,8.101c-5.189-0.718-8.813-5.502-8.098-10.69C555.883,782.983,576.838,762.904,600.837,763.78z"
			/>
		<path fill="#541515" d="M494.53,728.982c0.649,19.756-14.84,36.299-34.595,36.948c-19.756,0.649-36.298-14.841-36.947-34.598
			c-0.649-19.754,14.84-36.297,34.596-36.946C477.34,693.737,493.881,709.228,494.53,728.982z"/>
		<path fill="#FCF7E5" d="M481.263,714.039c0.243,7.4-5.557,13.595-12.956,13.838c-7.399,0.243-13.595-5.557-13.838-12.957
			c-0.243-7.4,5.559-13.595,12.957-13.838C474.826,700.839,481.02,706.639,481.263,714.039z"/>
		<path fill="#FCF7E5" d="M459.283,746.074c0.156,4.746-3.565,8.718-8.309,8.874c-4.745,0.156-8.718-3.563-8.874-8.309
			c-0.156-4.743,3.565-8.716,8.309-8.871S459.127,741.331,459.283,746.074z"/>
		<path fill="#541515" d="M778.863,719.64c0.649,19.756-14.839,36.299-34.595,36.948c-19.756,0.649-36.297-14.842-36.946-34.598
			c-0.649-19.754,14.839-36.297,34.595-36.946S778.214,699.886,778.863,719.64z"/>
		<circle fill="#FCF7E5" cx="752.199" cy="705.137" r="13.405"/>
		<path fill="#FCF7E5" d="M743.615,736.732c0.156,4.746-3.566,8.718-8.309,8.874c-4.746,0.156-8.718-3.563-8.874-8.309
			c-0.156-4.744,3.564-8.716,8.309-8.872C739.485,728.27,743.459,731.989,743.615,736.732z"/>
		
			<ellipse transform="matrix(0.9995 -0.0328 0.0328 0.9995 -26.6171 15.3183)" fill="#8A1D1D" cx="453.045" cy="817.997" rx="55.979" ry="30.034"/>
		
			<ellipse transform="matrix(0.9995 -0.0328 0.0328 0.9995 -26.1186 25.4278)" fill="#8A1D1D" cx="761.072" cy="807.877" rx="55.98" ry="30.034"/>
	</g>
</g>
</svg>
